<?xml version="1.0" encoding="UTF-8" standalone="no"?>
<!-- Created with Inkscape (http://www.inkscape.org/) -->

<svg
   xmlns:dc="http://purl.org/dc/elements/1.1/"
   xmlns:cc="http://creativecommons.org/ns#"
   xmlns:rdf="http://www.w3.org/1999/02/22-rdf-syntax-ns#"
   xmlns:svg="http://www.w3.org/2000/svg"
   xmlns="http://www.w3.org/2000/svg"
   xmlns:sodipodi="http://sodipodi.sourceforge.net/DTD/sodipodi-0.dtd"
   xmlns:inkscape="http://www.inkscape.org/namespaces/inkscape"
   width="58.647411mm"
   height="20.541019mm"
   viewBox="0 0 58.647412 20.541019"
   version="1.1"
   id="svg3067"
   sodipodi:docname="users-connected.svg"
   inkscape:version="0.92.3 (2405546, 2018-03-11)">
  <defs
     id="defs3061" />
  <sodipodi:namedview
     id="base"
     pagecolor="#ffffff"
     bordercolor="#666666"
     borderopacity="1.0"
     inkscape:pageopacity="0.0"
     inkscape:pageshadow="2"
     inkscape:zoom="0.35"
     inkscape:cx="-1362.9997"
     inkscape:cy="-43.547617"
     inkscape:document-units="mm"
     inkscape:current-layer="layer1"
     showgrid="false"
     fit-margin-top="0"
     fit-margin-left="0"
     fit-margin-right="0"
     fit-margin-bottom="0"
     inkscape:window-width="1920"
     inkscape:window-height="1016"
     inkscape:window-x="1600"
     inkscape:window-y="27"
     inkscape:window-maximized="1" />
  <metadata
     id="metadata3064">
    <rdf:RDF>
      <cc:Work
         rdf:about="">
        <dc:format>image/svg+xml</dc:format>
        <dc:type
           rdf:resource="http://purl.org/dc/dcmitype/StillImage" />
        <dc:title />
      </cc:Work>
    </rdf:RDF>
  </metadata>
  <g
     inkscape:label="Calque 1"
     inkscape:groupmode="layer"
     id="layer1"
     transform="translate(-3.5802534,-151.85716)">
    <path
       style="fill:#ffffff;stroke-width:0.99999988"
       d="m 9.8336763,172.33477 c -3.165062,-0.0223 -5.7727,-0.0587 -5.794751,-0.0807 -0.05795,-0.058 0.08608,-1.38273 0.270484,-2.48788 0.51583,-3.09135 1.472188,-5.37758 2.76096,-6.60021 0.48995,-0.46481 1.144036,-0.85326 1.652146,-0.98117 0.279015,-0.0702 0.305758,-0.0947 0.369173,-0.33786 0.0376,-0.14417 0.109047,-0.40251 0.158765,-0.57409 l 0.0904,-0.31197 -0.368074,-0.38567 c -0.416173,-0.43606 -0.677788,-0.80164 -0.927517,-1.29609 l -0.171537,-0.33964 -0.182964,0.38687 c -0.34865,0.73722 -0.925862,1.21073 -1.898829,1.55768 -0.260398,0.0928 -0.51081,0.19983 -0.556471,0.23772 -0.167466,0.13899 -0.148949,-0.0148 0.0677,-0.56226 0.397959,-1.00564 0.444967,-1.60108 0.174642,-2.2122 -0.0702,-0.1587 -0.410554,-0.72239 -0.756335,-1.25263 -0.706123,-1.08282 -0.901449,-1.44446 -1.049297,-1.94277 -0.220064,-0.74171 -0.0492,-1.33689 0.55817,-1.94425 0.517078,-0.51708 0.941989,-0.68424 1.640238,-0.64527 0.452321,0.0252 0.557223,0.0599 1.268429,0.41846 1.366587,0.68907 1.538269,0.7147 1.951275,0.29134 0.594556,-0.60946 1.4630087,-1.08188 2.4012237,-1.30621 0.708052,-0.1693 1.880647,-0.13678 2.604684,0.0722 1.467664,0.42369 2.577855,1.45806 3.038137,2.83066 0.201221,0.60006 0.281093,1.43344 0.204009,2.12862 -0.05753,0.5188 -0.05042,0.65047 0.05765,1.06746 0.26732,1.03148 0.223548,1.84106 -0.139638,2.58262 -0.361447,0.73801 -1.159691,1.31124 -2.088557,1.49983 l -0.40394,0.082 -0.07231,0.36108 c -0.03977,0.1986 -0.09048,0.48225 -0.112688,0.63033 l -0.04038,0.26923 0.403956,0.26559 c 1.510675,0.99321 2.752785,4.01301 3.150533,7.65952 0.03805,0.34882 0.08156,0.7127 0.09668,0.80863 l 0.0275,0.17441 -1.31441,-0.0114 c -0.722925,-0.006 -3.904006,-0.0297 -7.0690687,-0.052 z m 38.2786347,-0.49156 c 0.02172,-0.30521 0.113974,-0.99729 0.205033,-1.53796 0.589024,-3.49745 1.731198,-5.8419 3.290615,-6.75439 0.101794,-0.0596 0.102055,-0.0999 0.0043,-0.66287 -0.05723,-0.3297 -0.118129,-0.62224 -0.135332,-0.65007 -0.01722,-0.0278 -0.09381,-0.0509 -0.170238,-0.0513 -0.435592,-0.002 -1.367325,-0.45004 -1.789232,-0.86008 -0.353298,-0.34337 -0.564237,-0.68307 -0.732464,-1.17959 -0.115872,-0.34199 -0.131411,-0.49989 -0.105021,-1.0673 0.01841,-0.39566 0.07433,-0.78175 0.137797,-0.95132 0.114271,-0.3053 0.121182,-0.42361 0.09629,-1.64896 -0.01188,-0.58374 0.01286,-0.90982 0.09373,-1.23671 0.312068,-1.26136 1.14001,-2.30316 2.259364,-2.84298 0.806717,-0.38905 1.216496,-0.48999 2.152049,-0.53011 0.665232,-0.0285 0.881626,-0.0127 1.345121,0.0981 1.047245,0.25037 1.837748,0.7124 2.59828,1.5186 1.834372,1.94453 1.838052,5.03979 0.0083,6.98842 l -0.456076,0.48571 0.08809,0.31222 c 0.04845,0.17172 0.118317,0.43018 0.155271,0.57434 0.0624,0.24345 0.08863,0.26753 0.367991,0.33786 0.508111,0.12792 1.162195,0.51636 1.652145,0.98117 1.502209,1.42512 2.543297,4.26242 2.970014,8.09425 0.05816,0.52224 0.09188,0.96338 0.07495,0.98032 -5.924487,0.11101 -8.079955,0.10827 -14.150491,0.15762 l 0.03948,-0.55493 z m -29.120265,-3.17126 c -0.197272,-0.90916 -0.698016,-2.41396 -1.051819,-3.16084 -0.380347,-0.80293 -0.678474,-1.28493 -1.162719,-1.87985 -0.2246,-0.27594 -0.361706,-0.49263 -0.311697,-0.49263 0.04911,0 0.299857,-0.1378 0.557225,-0.30623 1.498958,-0.98092 2.149026,-2.63511 1.789278,-4.55306 -0.0707,-0.37692 -0.107414,-0.92515 -0.110987,-1.65722 l -0.0053,-1.09398 c 2.906817,-3e-5 5.813633,-6e-5 8.72045,-9e-5 v 9.4498 h 5.707929 5.707933 v -9.4498 l 8.72045,1.1e-4 -0.0031,1.09397 c -0.0024,0.86151 -0.0278,1.18156 -0.119359,1.5062 -0.156398,0.55451 -0.163571,1.59808 -0.01482,2.15633 0.308433,1.15755 1.105668,2.18159 2.106248,2.70546 l 0.330509,0.17304 -0.389604,0.47925 c -0.952222,1.17131 -1.772592,3.04601 -2.206363,5.04196 l -0.145709,0.67047 c -2.748848,-0.0109 -5.497697,-0.0217 -8.246546,-0.0326 -0.01154,-0.77163 -0.02304,-1.54326 -0.03457,-2.31489 h -5.706512 -5.706501 v 2.3466 c -2.758832,-1.3e-4 -5.517667,-2.7e-4 -8.276499,-3.7e-4 l -0.147891,-0.68159 z"
       id="path2448"
       inkscape:connector-curvature="0"
       sodipodi:nodetypes="ccsccscccscsccccssccscccsscsscsccccccccccccccccccccccsscccccccccccccsssscsccccccccccccscccccccccc" />
  </g>
</svg>
