<?xml version="1.0" encoding="UTF-8" standalone="no"?>
<!-- Created with Inkscape (http://www.inkscape.org/) -->

<svg
   xmlns:dc="http://purl.org/dc/elements/1.1/"
   xmlns:cc="http://creativecommons.org/ns#"
   xmlns:rdf="http://www.w3.org/1999/02/22-rdf-syntax-ns#"
   xmlns:svg="http://www.w3.org/2000/svg"
   xmlns="http://www.w3.org/2000/svg"
   xmlns:sodipodi="http://sodipodi.sourceforge.net/DTD/sodipodi-0.dtd"
   xmlns:inkscape="http://www.inkscape.org/namespaces/inkscape"
   width="23.836298mm"
   height="20.540644mm"
   viewBox="0 0 23.836298 20.540644"
   version="1.1"
   id="svg3067"
   sodipodi:docname="user-f.svg"
   inkscape:version="0.92.3 (2405546, 2018-03-11)">
  <defs
     id="defs3061" />
  <sodipodi:namedview
     id="base"
     pagecolor="#ffffff"
     bordercolor="#666666"
     borderopacity="1.0"
     inkscape:pageopacity="0.0"
     inkscape:pageshadow="2"
     inkscape:zoom="0.35"
     inkscape:cx="-459.31644"
     inkscape:cy="-93.793846"
     inkscape:document-units="mm"
     inkscape:current-layer="layer1"
     showgrid="false"
     fit-margin-top="0"
     fit-margin-left="0"
     fit-margin-right="0"
     fit-margin-bottom="0"
     inkscape:window-width="1920"
     inkscape:window-height="1016"
     inkscape:window-x="1600"
     inkscape:window-y="27"
     inkscape:window-maximized="1" />
  <metadata
     id="metadata3064">
    <rdf:RDF>
      <cc:Work
         rdf:about="">
        <dc:format>image/svg+xml</dc:format>
        <dc:type
           rdf:resource="http://purl.org/dc/dcmitype/StillImage" />
        <dc:title></dc:title>
      </cc:Work>
    </rdf:RDF>
  </metadata>
  <g
     inkscape:label="Calque 1"
     inkscape:groupmode="layer"
     id="layer1"
     transform="translate(-48.200095,-103.4764)">
    <path
       sodipodi:nodetypes="ccsccscccscsccccssccscccsscsscsccccccccccsssscscccccc"
       inkscape:connector-curvature="0"
       id="path2480"
       d="m 54.453518,123.95366 c -3.165062,-0.0223 -5.7727,-0.0587 -5.794751,-0.0807 -0.05795,-0.058 0.08608,-1.38273 0.270484,-2.48787 0.51583,-3.09136 1.472188,-5.37758 2.76096,-6.60022 0.48995,-0.46481 1.144036,-0.85325 1.652146,-0.98117 0.279015,-0.0702 0.305758,-0.0947 0.369173,-0.33786 0.0376,-0.14417 0.109047,-0.40251 0.158765,-0.57409 l 0.0904,-0.31196 -0.368074,-0.38567 c -0.416173,-0.43607 -0.677788,-0.80164 -0.927517,-1.2961 l -0.171537,-0.33964 -0.182964,0.38688 c -0.34865,0.73722 -0.925862,1.21072 -1.898829,1.55767 -0.260398,0.0928 -0.51081,0.19983 -0.556471,0.23773 -0.167466,0.13898 -0.148949,-0.0148 0.0677,-0.56227 0.397959,-1.00563 0.444967,-1.60108 0.174642,-2.21219 -0.0702,-0.15871 -0.410554,-0.7224 -0.756335,-1.25264 -0.706123,-1.08282 -0.901449,-1.44446 -1.049297,-1.94277 -0.220064,-0.74171 -0.0492,-1.33688 0.55817,-1.94425 0.517078,-0.51708 0.941989,-0.68424 1.640238,-0.64527 0.452321,0.0252 0.557223,0.0599 1.268429,0.41846 1.366587,0.68907 1.538269,0.71471 1.951275,0.29134 0.594556,-0.60946 1.463009,-1.08188 2.401224,-1.30621 0.708052,-0.1693 1.880647,-0.13678 2.604684,0.0722 1.467664,0.42369 2.577855,1.45806 3.038137,2.83066 0.201221,0.60006 0.281093,1.43344 0.204009,2.12862 -0.05753,0.5188 -0.05042,0.65047 0.05765,1.06746 0.26732,1.03148 0.223548,1.84106 -0.139638,2.58262 -0.361447,0.73801 -1.159691,1.31124 -2.088557,1.49983 l -0.40394,0.082 -0.07231,0.36109 c -0.03977,0.19859 -0.09048,0.48224 -0.112688,0.63032 l -0.04038,0.26924 0.403956,0.26558 c 1.510675,0.99321 2.752785,4.01301 3.150533,7.65953 0.03805,0.34881 0.08156,0.71269 0.09668,0.80862 l 0.0275,0.17441 -1.31441,-0.0114 c -0.722925,-0.006 -3.904006,-0.0297 -7.069069,-0.052 z m 9.15837,-3.66282 c -0.197272,-0.90916 -0.698016,-2.41396 -1.051819,-3.16084 -0.380347,-0.80292 -0.678474,-1.28493 -1.162719,-1.87985 -0.2246,-0.27594 -0.361706,-0.49263 -0.311697,-0.49263 0.04911,0 0.299857,-0.1378 0.557225,-0.30623 1.498958,-0.98092 2.149026,-2.63511 1.789278,-4.55306 -0.0707,-0.37692 -0.107414,-0.92515 -0.110987,-1.65722 l -0.0053,-1.09398 8.720454,-9e-5 7e-5,13.8259 c 0,0 -5.51767,-2.6e-4 -8.276502,-3.7e-4 L 63.612,120.29087 Z"
       style="fill:#000000;stroke-width:0.99999988" />
  </g>
</svg>
