<?xml version="1.0" standalone="no"?>
<!DOCTYPE svg PUBLIC "-//W3C//DTD SVG 20010904//EN"
 "http://www.w3.org/TR/2001/REC-SVG-20010904/DTD/svg10.dtd">
<svg version="1.0" xmlns="http://www.w3.org/2000/svg"
 width="500.000000pt" height="500.000000pt" viewBox="0 0 500.000000 500.000000"
 preserveAspectRatio="xMidYMid meet">
<metadata>
Created by potrace 1.11, written by Peter Selinger 2001-2013
</metadata>
<g transform="translate(0.000000,500.000000) scale(0.100000,-0.100000)"
fill="#000000" stroke="none">
<path d="M2700 4800 c-140 -60 -268 -116 -285 -124 -16 -7 -127 -55 -245 -106
-118 -51 -228 -98 -245 -105 -16 -8 -64 -28 -105 -45 -41 -17 -93 -40 -115
-49 -155 -69 -444 -191 -453 -191 -7 0 -12 -4 -12 -10 0 -5 -9 -10 -19 -10
-29 0 -34 -16 -16 -50 8 -16 15 -32 15 -35 1 -9 244 -662 265 -710 7 -16 16
-41 20 -55 3 -14 10 -34 15 -45 11 -25 41 -104 125 -330 68 -181 167 -393 189
-401 6 -2 157 59 336 136 178 77 330 141 338 142 18 3 20 -7 30 -137 13 -178
5 -585 -12 -614 -2 -3 -7 -33 -10 -66 -9 -83 -11 -86 -55 -118 l-39 -27 -22
27 c-26 34 -137 149 -176 183 -111 97 -281 180 -442 215 -108 23 -158 27 -327
25 -453 -6 -445 -7 -554 74 -52 39 -121 71 -121 57 0 -14 48 -147 79 -220 110
-257 409 -520 741 -651 167 -66 388 -118 552 -130 4 0 3 -12 -1 -27 -14 -48
-12 -185 3 -268 15 -82 28 -127 66 -228 20 -53 21 -63 9 -130 -6 -40 -13 -88
-14 -107 -2 -19 -6 -73 -11 -120 -13 -137 -9 -408 7 -437 44 -82 238 -84 275
-3 7 15 14 113 18 240 5 199 12 310 20 318 2 2 35 -1 72 -7 115 -17 345 -7
454 19 52 12 100 26 105 30 6 4 23 10 40 14 44 11 238 110 319 163 307 202
546 482 650 763 15 41 29 82 32 90 23 96 33 142 39 180 4 24 8 47 10 50 5 8
16 197 16 275 1 218 -23 329 -93 424 -10 13 -18 32 -18 42 0 16 -7 14 -47 -15
-27 -19 -55 -43 -64 -53 -125 -143 -289 -226 -754 -381 -181 -60 -370 -128
-420 -149 l-90 -39 -1 100 c-2 228 -16 347 -66 586 -11 52 -21 103 -22 114 -1
14 34 33 174 93 96 41 193 83 215 93 22 10 101 44 175 75 74 32 153 65 175 75
22 10 105 46 185 80 80 35 147 64 149 66 3 2 -4 41 -13 87 -10 45 -20 90 -22
100 -7 39 -17 60 -80 168 -35 61 -64 113 -64 115 0 2 -18 33 -40 69 -22 36
-40 67 -40 69 0 1 -50 90 -111 197 -61 107 -124 218 -140 247 -16 28 -40 70
-54 92 -14 22 -25 42 -25 44 0 2 -23 44 -51 93 -92 156 -120 208 -126 226 -3
9 -9 17 -14 17 -5 0 -9 7 -9 15 0 8 -3 15 -7 15 -5 0 -123 -50 -263 -110z"/>
</g>
</svg>
